<?xml version="1.0" encoding="UTF-8"?>
<svg width="275px" height="55px" viewBox="0 0 275 55" version="1.1" xmlns="http://www.w3.org/2000/svg" xmlns:xlink="http://www.w3.org/1999/xlink">
    <title>img / Logo / GPN / avsv</title>
    <defs>
        <rect id="path-1" x="0" y="0" width="275" height="55"></rect>
    </defs>
    <g id="img-/-Logo-/-GPN-/-avsv" stroke="none" stroke-width="1" fill="none" fill-rule="evenodd">
        <mask id="mask-2" fill="white">
            <use xlink:href="#path-1"></use>
        </mask>
        <use id="Mask" fill-opacity="0" fill="#FFFFFF" xlink:href="#path-1"></use>
        <g id="Group" mask="url(#mask-2)">
            <g transform="translate(0.000000, 0.000000)" id="logo">
                <polygon id="Fill-98" fill="#006FAB" points="121.898676 13.6477699 114.656928 50 116.331001 50 123.572749 13.6477699"></polygon>
                <path d="M85.0042786,14.7737514 L82.2958621,14.7737514 C80.0063007,14.7737514 79.8716206,16.6261029 79.8716206,17.8214295 L79.8716206,28.7776908 C79.8716206,29.9743666 80.0063007,31.8267181 82.2958621,31.8267181 L85.0042786,31.8267181 C87.2938401,31.8267181 87.4339074,29.9743666 87.4339074,28.7776908 L87.4339074,17.8214295 C87.4339074,16.6261029 87.2938401,14.7737514 85.0042786,14.7737514 M83.6520906,29.7180324 C83.2507439,29.7180324 82.9248181,29.415828 82.9248181,29.0407706 C82.9248181,29.0326759 82.9288585,29.0245811 82.9288585,29.0151372 L82.9288585,17.5866814 L82.9288585,17.5354146 L82.9328989,17.486846 C82.9706093,17.1509134 83.2749863,16.8837862 83.649397,16.8837862 C84.0224608,16.8837862 84.332225,17.1509134 84.3685886,17.486846 L84.372629,17.5354146 L84.372629,17.5866814 L84.372629,29.0151372 C84.372629,29.0245811 84.3753226,29.0326759 84.3753226,29.0407706 C84.3753226,29.415828 84.0493968,29.7180324 83.6520906,29.7180324" id="Fill-100" fill="#006FAB"></path>
                <polygon id="Fill-102" fill="#006FAB" points="34.0406609 14.7737514 40.2776957 14.7737514 40.2776957 16.891881 37.3093466 16.891881 37.3093466 31.8267181 34.0406609 31.8267181"></polygon>
                <path d="M44.3793777,25.4197134 L44.9423404,16.8891827 L45.1268522,16.8891827 L45.6871213,25.4197134 L44.3793777,25.4197134 Z M40.7618706,31.8267181 L43.957829,31.8267181 L44.2648996,27.293651 L45.8069866,27.293651 L46.10867,31.8267181 L49.3100156,31.8267181 L47.6022721,14.7737514 L42.4669205,14.7737514 L40.7618706,31.8267181 Z" id="Fill-104" fill="#006FAB"></path>
                <path d="M53.991226,25.8557513 L53.991226,29.0653247 C53.991226,29.503791 54.3131114,29.6279107 54.5030103,29.6279107 C54.8060405,29.6279107 55.0161415,29.3580853 55.0161415,29.0653247 L55.0161415,25.1002401 C55.0161415,24.5646367 54.924559,23.9818138 53.7057042,23.9818138 L52.3804522,23.9818138 L52.3804522,22.1051779 L53.7528423,22.1051779 C54.687522,22.1051779 55.0161415,21.882572 55.0161415,20.842395 L55.0161415,17.4479911 C55.0161415,17.1579288 54.8060405,16.8908017 54.5030103,16.8908017 C54.3131114,16.8908017 53.991226,17.0122231 53.991226,17.4479911 L53.991226,20.2298913 L50.7198467,20.2298913 L50.7198467,17.8203502 C50.7198467,16.6263727 50.8626076,14.7740212 53.1481287,14.7740212 L55.8592388,14.7740212 C58.1488002,14.7740212 58.2875207,16.6263727 58.2875207,17.8203502 L58.2875207,20.5509835 C58.2875207,22.3979385 57.0484639,22.9092577 56.0666461,22.8606891 L56.0666461,23.0333774 C58.2605847,22.9807614 58.2875207,24.7359758 58.2875207,25.3471304 L58.2875207,28.7779607 C58.2875207,29.9746364 58.1488002,31.8269879 55.8592388,31.8269879 L53.1481287,31.8269879 C50.8626076,31.8269879 50.7198467,29.9746364 50.7198467,28.7779607 L50.7198467,25.8557513 L53.991226,25.8557513 Z" id="Fill-106" fill="#006FAB"></path>
                <polygon id="Fill-108" fill="#006FAB" points="60.4383617 14.7737514 68.0046889 14.7737514 68.0046889 31.8267181 64.954185 31.8267181 64.954185 16.891881 63.486172 16.891881 63.486172 31.8267181 60.4383617 31.8267181"></polygon>
                <path d="M73.6403771,24.1495103 L73.6403771,16.8912064 L74.499636,16.8912064 C74.8538446,16.8912064 75.1110836,17.2082513 75.1110836,17.7411565 L75.1110836,23.2995602 C75.1110836,23.8365128 74.8538446,24.1495103 74.499636,24.1495103 L73.6403771,24.1495103 Z M70.3730382,31.8273927 L73.6403771,31.8273927 L73.6403771,26.0288443 L75.5083898,26.0288443 C77.7979513,26.0288443 78.1629343,24.1791911 78.1629343,22.9798171 L78.1629343,17.820755 C78.1629343,16.6267775 77.7979513,14.7730768 75.5083898,14.7730768 L70.3730382,14.7730768 L70.3730382,31.8273927 Z" id="Fill-110" fill="#006FAB"></path>
                <polygon id="Fill-112" fill="#006FAB" points="97.8673042 14.7737514 102.120501 14.7737514 102.120501 31.8267181 98.849122 31.8267181 98.849122 21.1321875 98.7319504 21.1321875 97.0484493 31.8267181 94.4356556 31.8267181 92.7535014 21.1321875 92.6390233 21.1321875 92.6390233 31.8267181 89.367644 31.8267181 89.367644 14.7737514 93.6141071 14.7737514 95.7366653 26.7580475"></polygon>
                <path d="M27.3655119,8.81789482 C26.3338624,4.28617684 23.7412708,0.600361566 23.3870621,0 C22.8227526,0.845902701 20.7581069,4.09729905 19.7076022,7.70756321 C18.5628215,11.7333585 18.3931246,15.3031489 18.7877372,18.8216724 C19.1823499,22.3361485 20.6665244,25.9450635 20.6665244,25.9450635 C21.4544029,27.8419363 22.6355473,29.8696743 23.4045705,30.8666793 C24.5291493,29.4001781 27.1244345,25.026308 27.9298214,19.3100564 C28.3783061,16.132862 28.3958145,13.3469145 27.3655119,8.81789482 M23.3870621,29.738809 C22.880665,28.7822779 22.0887461,26.9596071 22.0146721,24.1439788 C21.9944701,21.4160438 23.0853787,19.0820539 23.4045705,18.5936699 C23.6900923,19.0820539 24.6234253,21.1151885 24.7365566,23.8970886 C24.8133242,26.6196271 23.9136613,28.762041 23.3870621,29.738809 M27.0678689,16.5065702 C27.0288116,18.2361512 26.8227511,20.0601711 26.5601249,21.1489167 C26.6557478,19.2722808 26.4281385,16.6212461 25.9958154,14.5503359 C25.5661859,12.4794258 24.3419439,9.02700952 23.3668601,7.42559564 C22.4698908,8.94741103 21.3587801,11.9370767 20.7783089,14.5341464 C20.1937973,17.1285178 20.1762889,20.2692858 20.1762889,21.2123256 C20.0214068,20.4122932 19.6335282,17.5872211 19.7453126,14.741912 C19.8368951,12.3930817 20.3836962,9.98354065 20.6840328,8.87185991 C21.8288136,5.16850598 23.1257828,2.80078789 23.3668601,2.4230323 C23.6106311,2.80078789 25.2456473,5.71625159 26.0914383,8.77877014 C26.9331888,11.8453361 27.1015389,14.7783384 27.0678689,16.5065702" id="Fill-114" fill="#006FAB"></path>
                <path d="M17.0478052,31.82375 L17.0478052,37.1838321 C17.0545392,37.1770864 17.0612732,37.1689917 17.0720476,37.162246 C18.9414072,35.2950541 21.9744027,35.2950541 23.8451091,37.162246 C25.7185091,39.0253906 25.7185091,42.0582283 23.8451091,43.922722 C23.8383751,43.9308168 23.8316411,43.9375624 23.8222135,43.9456572 L23.8222135,43.9470063 C23.8114391,43.955101 23.8033583,43.9631958 23.7952775,43.9726397 C21.9259179,45.8195947 19.4868615,46.7464451 17.0478052,46.7464451 C14.6020149,46.7464451 12.1494905,45.8101508 10.2814777,43.9510537 C6.98989643,40.6632309 6.59528378,35.5797199 9.10841417,31.865573 C9.44511438,31.3636977 9.83568663,30.8874558 10.2814777,30.4449421 C12.1494905,28.5804484 14.6020149,27.6508999 17.0478052,27.6508999 L17.0478052,14.8652222 C7.63770764,14.8652222 -1.77329392e-15,22.4796956 -1.77329392e-15,31.865573 C-1.77329392e-15,41.2595451 7.63770764,48.8740185 17.0478052,48.8740185 C21.9609347,48.8740185 26.3797883,46.799061 29.4882047,43.4883031 L29.4882047,31.82375 L17.0478052,31.82375 Z" id="Fill-116" fill="#006FAB"></path>
                <path d="M69.1902777,41.2089528 L68.9249579,41.2089528 L68.9249579,44.6586708 L69.1902777,44.6586708 C69.5741159,44.6586708 69.7128364,44.5493915 69.7128364,44.1149726 L69.7128364,41.7337633 C69.7128364,41.2979952 69.5741159,41.2089528 69.1902777,41.2089528 L69.1902777,41.2089528 Z M96.8374056,43.514611 L96.4535674,43.514611 L96.4535674,45.4465611 L96.8374056,45.4465611 C97.2239378,45.4465611 97.3411091,45.3480748 97.3411091,44.925798 L97.3411091,44.034025 C97.3411091,43.6103991 97.2239378,43.514611 96.8374056,43.514611 L96.8374056,43.514611 Z M66.4481911,41.7540002 L66.4481911,44.1244165 C66.4481911,44.5588354 66.5869116,44.6586708 66.9680563,44.6586708 L67.246844,44.6586708 L67.246844,41.2089528 L66.9680563,41.2089528 C66.5869116,41.2089528 66.4481911,41.3195812 66.4481911,41.7540002 L66.4481911,41.7540002 Z M34.041469,48.8733439 L102.120905,48.8733439 L102.120905,37.5055989 L34.041469,37.5055989 L34.041469,48.8733439 Z M41.4313653,46.7552144 L39.7047666,46.7552144 L39.7047666,43.514611 L38.8185716,43.514611 L38.8185716,46.7552144 L37.0919729,46.7552144 L37.0919729,39.3512048 L38.8185716,39.3512048 L38.8185716,42.208656 L39.7047666,42.208656 L39.7047666,39.3512048 L41.4313653,39.3512048 L41.4313653,46.7552144 Z M55.743818,40.7502496 L53.3828761,40.7502496 L53.3828761,42.2059577 L55.4960066,42.2059577 L55.4960066,43.6103991 L53.3828761,43.6103991 L53.3828761,45.3548204 L55.743818,45.3548204 L55.743818,46.7606109 L51.6024053,46.7606109 L51.6024053,39.3444591 L55.743818,39.3444591 L55.743818,40.7502496 Z M71.3869099,44.1149726 C71.3869099,45.6179002 70.6246206,46.0226384 68.9249579,46.0226384 L68.9249579,46.7552144 L67.246844,46.7552144 L67.246844,46.0226384 C65.5417942,46.0226384 64.7700773,45.6179002 64.7700773,44.1149726 L64.7700773,41.8012196 C64.7700773,40.2901972 65.5108177,39.905696 67.246844,39.905696 L67.246844,39.3512048 L68.9249579,39.3512048 L68.9249579,39.905696 C70.6502098,39.905696 71.3869099,40.2901972 71.3869099,41.8012196 L71.3869099,44.1149726 Z M84.6650195,40.7502496 L83.3572759,40.7502496 L83.3572759,46.7606109 L81.7155256,46.7606109 L81.7155256,40.7502496 L80.3148527,40.7502496 L80.3148527,39.3444591 L84.6650195,39.3444591 L84.6650195,40.7502496 Z M99.0650142,44.8461995 C99.0650142,46.4665012 98.3283141,46.7552144 96.4535674,46.7552144 L94.7269687,46.7552144 L94.7269687,39.3512048 L96.4535674,39.3512048 L96.4535674,42.208656 L96.7417827,42.208656 C98.437405,42.208656 99.0650142,42.6052994 99.0650142,44.0852918 L99.0650142,44.8461995 Z" id="Fill-118" fill="#006FAB"></path>
                <path d="M85.004508,14.7737912 L82.2960842,14.7737912 C80.0065165,14.7737912 79.8718361,16.6261478 79.8718361,17.8214776 L79.8718361,28.7777685 C79.8718361,29.9744475 80.0065165,31.826804 82.2960842,31.826804 L85.004508,31.826804 C87.2940756,31.826804 87.4341433,29.9744475 87.4341433,28.7777685 L87.4341433,17.8214776 C87.4341433,16.6261478 87.2940756,14.7737912 85.004508,14.7737912 M83.6523163,29.7181126 C83.2509685,29.7181126 82.9250419,29.4159073 82.9250419,29.040849 C82.9250419,29.0327542 82.9290823,29.0246594 82.9290823,29.0152155 L82.9290823,17.5867289 L82.9290823,17.5354619 L82.9331227,17.4868932 C82.9708332,17.1509596 83.275211,16.8838317 83.6496227,16.8838317 C84.0226875,16.8838317 84.3324525,17.1509596 84.3688163,17.4868932 L84.3728567,17.5354619 L84.3728567,17.5867289 L84.3728567,29.0152155 C84.3728567,29.0246594 84.3755503,29.0327542 84.3755503,29.040849 C84.3755503,29.4159073 84.0496236,29.7181126 83.6523163,29.7181126" id="Fill-2" fill="#006FAB"></path>
                <polygon id="Fill-4" fill="#006FAB" points="34.0406181 14.7737912 40.2776697 14.7737912 40.2776697 16.8919265 37.3093126 16.8919265 37.3093126 31.826804 34.0406181 31.826804"></polygon>
                <path d="M44.3794974,25.4196471 L44.9424617,16.8890934 L45.1269739,16.8890934 L45.6872446,25.4196471 L44.3794974,25.4196471 Z M40.7619806,31.8266691 L43.9579476,31.8266691 L44.265019,27.2935897 L45.8071102,27.2935897 L46.1087944,31.8266691 L49.3101487,31.8266691 L47.6024006,14.7736563 L42.4670351,14.7736563 L40.7619806,31.8266691 Z" id="Fill-6" fill="#006FAB"></path>
                <path d="M53.991237,25.8558211 L53.991237,29.0654032 C53.991237,29.5038707 54.3131233,29.6279907 54.5030227,29.6279907 C54.8060537,29.6279907 55.0161552,29.3581645 55.0161552,29.0654032 L55.0161552,25.1003079 C55.0161552,24.564703 54.9245725,23.9818785 53.7057145,23.9818785 L52.3804588,23.9818785 L52.3804588,22.1052376 L53.7528526,22.1052376 C54.6875349,22.1052376 55.0161552,21.882631 55.0161552,20.8424512 L55.0161552,17.4480382 C55.0161552,17.1579751 54.8060537,16.8908472 54.5030227,16.8908472 C54.3131233,16.8908472 53.991237,17.012269 53.991237,17.4480382 L53.991237,20.2299458 L50.7198489,20.2299458 L50.7198489,17.8203983 C50.7198489,16.6264176 50.8626102,14.7740611 53.1481374,14.7740611 L55.8592548,14.7740611 C58.1488225,14.7740611 58.2875433,16.6264176 58.2875433,17.8203983 L58.2875433,20.551039 C58.2875433,22.397999 57.0484832,22.9093195 56.0666627,22.8607508 L56.0666627,23.0334396 C58.2606072,22.9808235 58.2875433,24.7360426 58.2875433,25.3471988 L58.2875433,28.7780383 C58.2875433,29.9747173 58.1488225,31.8270738 55.8592548,31.8270738 L53.1481374,31.8270738 C50.8626102,31.8270738 50.7198489,29.9747173 50.7198489,28.7780383 L50.7198489,25.8558211 L53.991237,25.8558211 Z" id="Fill-8" fill="#006FAB"></path>
                <polygon id="Fill-10" fill="#006FAB" points="60.4383901 14.7737912 68.0047377 14.7737912 68.0047377 31.826804 64.9542255 31.826804 64.9542255 16.8919265 63.4862086 16.8919265 63.4862086 31.826804 60.4383901 31.826804"></polygon>
                <path d="M73.6405758,24.1495754 L73.6405758,16.891252 L74.499837,16.891252 C74.8540466,16.891252 75.1112863,17.2082977 75.1112863,17.7412043 L75.1112863,23.2996231 C75.1112863,23.8365771 74.8540466,24.1495754 74.499837,24.1495754 L73.6405758,24.1495754 Z M70.3732281,31.8274786 L73.6405758,31.8274786 L73.6405758,26.0289146 L75.5085936,26.0289146 C77.7981612,26.0289146 78.1631452,24.1792563 78.1631452,22.9798791 L78.1631452,17.8208031 C78.1631452,16.6268223 77.7981612,14.7731167 75.5085936,14.7731167 L70.3732281,14.7731167 L70.3732281,31.8274786 Z" id="Fill-12" fill="#006FAB"></path>
                <polygon id="Fill-14" fill="#006FAB" points="97.8674336 14.7737912 102.120642 14.7737912 102.120642 31.826804 98.8492541 31.826804 98.8492541 21.1322445 98.7320821 21.1322445 97.0485765 31.826804 94.4357758 31.826804 92.753617 21.1322445 92.6391386 21.1322445 92.6391386 31.826804 89.3677505 31.826804 89.3677505 14.7737912 93.614225 14.7737912 95.7367889 26.7581197"></polygon>
                <path d="M27.3655857,8.81791862 C26.3339335,4.28618841 23.7413348,0.600363186 23.3871252,0 C22.8228142,0.845904983 20.7581629,4.0973101 19.7076554,7.707584 C18.5628716,11.7333902 18.3931742,15.3031902 18.7877879,18.8217232 C19.1824016,22.3362088 20.6665802,25.9451336 20.6665802,25.9451336 C21.4544608,27.8420114 22.6356083,29.8697549 23.4046337,30.8667625 C24.5292154,29.4002574 27.1245077,25.0263755 27.9298968,19.3101085 C28.3783827,16.1329056 28.3958911,13.3469506 27.3655857,8.81791862 M23.3871252,29.7388892 C22.8807268,28.7823555 22.0888057,26.9596799 22.0147315,24.144044 C21.9945294,21.4161016 23.085441,19.0821054 23.4046337,18.5937201 C23.6901563,19.0821054 24.6234918,21.1152454 24.7366233,23.8971531 C24.8133912,26.6196989 23.9137258,28.7621186 23.3871252,29.7388892 M27.0679419,16.5066148 C27.0288846,18.2362004 26.8228235,20.0602252 26.5601966,21.1489737 C26.6558197,19.2723328 26.4282098,16.6212909 25.9958855,14.5503752 C25.5662549,12.4794595 24.3420096,9.02703388 23.3669232,7.42561568 C22.4699514,8.94743517 21.3588377,11.9371089 20.778365,14.5341856 C20.1938518,17.1285641 20.1763433,20.2693405 20.1763433,21.2123829 C20.0214608,20.4123483 19.6335811,17.5872685 19.7453659,14.7419518 C19.8369486,12.3931151 20.3837512,9.98356759 20.6840886,8.87188385 C21.8288725,5.16851992 23.1258452,2.80079545 23.3669232,2.42303884 C23.6106948,2.80079545 25.2457154,5.71626701 26.0915087,8.77879382 C26.9332615,11.845368 27.101612,14.7783783 27.0679419,16.5066148" id="Fill-16" fill="#006FAB"></path>
                <path d="M17.0478512,31.8238359 L17.0478512,37.1839324 C17.0545852,37.1771867 17.0613192,37.169092 17.0720937,37.1623463 C18.9414583,35.2951493 21.974462,35.2951493 23.8451734,37.1623463 C25.7185785,39.0254959 25.7185785,42.0583418 23.8451734,43.9228405 C23.8384394,43.9309353 23.8317054,43.937681 23.8222778,43.9457757 L23.8222778,43.9471249 C23.8115033,43.9552197 23.8034225,43.9633144 23.7953417,43.9727584 C21.9259771,45.8197184 19.4869141,46.7465712 17.0478512,46.7465712 C14.6020543,46.7465712 12.1495233,45.8102744 10.2815055,43.9511723 C6.98991529,40.6633406 6.59530157,35.5798159 9.10843875,31.865659 C9.44513987,31.3637823 9.83571317,30.8875392 10.2815055,30.4450243 C12.1495233,28.5805256 14.6020543,27.6509745 17.0478512,27.6509745 L17.0478512,14.8652623 C7.63772825,14.8652623 5.31988175e-15,22.4797563 5.31988175e-15,31.865659 C5.31988175e-15,41.2596564 7.63772825,48.8741504 17.0478512,48.8741504 C21.960994,48.8741504 26.3798595,46.7991873 29.4882843,43.4884204 L29.4882843,31.8238359 L17.0478512,31.8238359 Z" id="Fill-18" fill="#006FAB"></path>
                <path d="M69.1903297,41.209064 L68.9250092,41.209064 L68.9250092,44.6587913 L69.1903297,44.6587913 C69.574169,44.6587913 69.7128898,44.5495117 69.7128898,44.1150916 L69.7128898,41.7338759 C69.7128898,41.2981066 69.574169,41.209064 69.1903297,41.209064 L69.1903297,41.209064 Z M96.8375322,43.5147285 L96.4536929,43.5147285 L96.4536929,45.4466837 L96.8375322,45.4466837 C97.2240628,45.4466837 97.3412371,45.3481972 97.3412371,44.9259192 L97.3412371,44.0341438 C97.3412371,43.6105167 97.2240628,43.5147285 96.8375322,43.5147285 L96.8375322,43.5147285 Z M66.4482358,41.7541128 L66.4482358,44.1245356 C66.4482358,44.5589557 66.5869566,44.6587913 66.9681023,44.6587913 L67.2468908,44.6587913 L67.2468908,41.209064 L66.9681023,41.209064 C66.5869566,41.209064 66.4482358,41.3196927 66.4482358,41.7541128 L66.4482358,41.7541128 Z M34.0414262,48.8734758 L102.121046,48.8734758 L102.121046,37.5057001 L34.0414262,37.5057001 L34.0414262,48.8734758 Z M41.4313424,46.7553405 L39.7047391,46.7553405 L39.7047391,43.5147285 L38.8185417,43.5147285 L38.8185417,46.7553405 L37.0919383,46.7553405 L37.0919383,39.351311 L38.8185417,39.351311 L38.8185417,42.2087699 L39.7047391,42.2087699 L39.7047391,39.351311 L41.4313424,39.351311 L41.4313424,46.7553405 Z M55.7438337,40.7503595 L53.3828854,40.7503595 L53.3828854,42.2060716 L55.4960217,42.2060716 L55.4960217,43.6105167 L53.3828854,43.6105167 L53.3828854,45.3549428 L55.7438337,45.3549428 L55.7438337,46.7607371 L51.6024099,46.7607371 L51.6024099,39.3445653 L55.7438337,39.3445653 L55.7438337,40.7503595 Z M71.3869678,44.1150916 C71.3869678,45.6180233 70.6246765,46.0227625 68.9250092,46.0227625 L68.9250092,46.7553405 L67.2468908,46.7553405 L67.2468908,46.0227625 C65.5418363,46.0227625 64.7701174,45.6180233 64.7701174,44.1150916 L64.7701174,41.8013324 C64.7701174,40.290306 65.5108598,39.9058037 67.2468908,39.9058037 L67.2468908,39.351311 L68.9250092,39.351311 L68.9250092,39.9058037 C70.6502658,39.9058037 71.3869678,40.290306 71.3869678,41.8013324 L71.3869678,44.1150916 Z M84.6651133,40.7503595 L83.3573661,40.7503595 L83.3573661,46.7607371 L81.7156114,46.7607371 L81.7156114,40.7503595 L80.3149348,40.7503595 L80.3149348,39.3445653 L84.6651133,39.3445653 L84.6651133,40.7503595 Z M99.0651468,44.8463205 C99.0651468,46.4666266 98.3284448,46.7553405 96.4536929,46.7553405 L94.7270896,46.7553405 L94.7270896,39.351311 L96.4536929,39.351311 L96.4536929,42.2087699 L96.7419091,42.2087699 C98.4375359,42.2087699 99.0651468,42.6054143 99.0651468,44.0854108 L99.0651468,44.8463205 Z" id="Fill-20" fill="#006FAB"></path>
                <polygon id="Fill-1" fill="#006FAB" points="121.89887 13.6476718 114.657102 50 116.33118 50 123.572948 13.6476718"></polygon>
            </g>
        </g>
        <g id="txt" mask="url(#mask-2)" fill="#006FAB" fill-rule="nonzero">
            <g transform="translate(136.096000, 14.612000)">
                <polygon id="Path" points="5.94 1.536 2.544 1.536 2.544 8.388 0.864 8.388 0.864 0.108 5.94 0.108"></polygon>
                <path d="M5.68,8.388 L8.56,0.108 L10.168,0.108 L13.048,8.388 L11.26,8.388 L10.756,6.816 L7.984,6.816 L7.48,8.388 L5.68,8.388 Z M8.428,5.4 L10.3,5.4 L9.364,2.484 L8.428,5.4 Z" id="Shape"></path>
                <path d="M15.86,3.384 L16.76,3.384 C17.24,3.384 17.58,3.292 17.78,3.108 C17.98,2.924 18.08,2.68 18.08,2.376 C18.08,2.088 17.988,1.854 17.804,1.674 C17.62,1.494 17.3,1.404 16.844,1.404 C16.396,1.404 16.064,1.498 15.848,1.686 C15.632,1.874 15.472,2.116 15.368,2.412 L13.892,2.412 C13.924,2.044 14.026,1.71 14.198,1.41 C14.37,1.11 14.592,0.856 14.864,0.648 C15.136,0.44 15.446,0.28 15.794,0.168 C16.142,0.056 16.512,0 16.904,0 C17.28,0 17.64,0.046 17.984,0.138 C18.328,0.23 18.632,0.368 18.896,0.552 C19.16,0.736 19.37,0.968 19.526,1.248 C19.682,1.528 19.76,1.852 19.76,2.22 C19.76,2.652 19.664,3.012 19.472,3.3 C19.28,3.588 19.016,3.832 18.68,4.032 C19.088,4.2 19.414,4.45 19.658,4.782 C19.902,5.114 20.024,5.524 20.024,6.012 C20.024,6.388 19.954,6.728 19.814,7.032 C19.674,7.336 19.47,7.596 19.202,7.812 C18.934,8.028 18.606,8.196 18.218,8.316 C17.83,8.436 17.388,8.496 16.892,8.496 C16.004,8.496 15.28,8.294 14.72,7.89 C14.16,7.486 13.8,6.852 13.64,5.988 L15.248,5.988 C15.4,6.364 15.594,6.64 15.83,6.816 C16.066,6.992 16.4,7.08 16.832,7.08 C17.84,7.08 18.344,6.7 18.344,5.94 C18.344,5.18 17.808,4.8 16.736,4.8 L15.86,4.8 L15.86,3.384 Z" id="Path"></path>
                <polygon id="Path" points="27.984 0.108 27.984 8.388 26.304 8.388 26.304 1.536 23.304 1.536 23.304 8.388 21.624 8.388 21.624 0.108"></polygon>
                <path d="M31.684,5.472 L31.684,8.388 L30.004,8.388 L30.004,0.108 L32.968,0.108 C33.92,0.108 34.674,0.328 35.23,0.768 C35.786,1.208 36.064,1.872 36.064,2.76 C36.064,3.64 35.79,4.312 35.242,4.776 C34.694,5.24 33.936,5.472 32.968,5.472 L31.684,5.472 Z M32.728,4.056 C33.312,4.056 33.734,3.952 33.994,3.744 C34.254,3.536 34.384,3.208 34.384,2.76 C34.384,2.36 34.254,2.056 33.994,1.848 C33.734,1.64 33.312,1.536 32.728,1.536 L31.684,1.536 L31.684,4.056 L32.728,4.056 Z" id="Shape"></path>
                <path d="M43.568,4.836 C43.568,5.468 43.49,6.014 43.334,6.474 C43.178,6.934 42.96,7.314 42.68,7.614 C42.4,7.914 42.064,8.136 41.672,8.28 C41.28,8.424 40.852,8.496 40.388,8.496 C39.924,8.496 39.498,8.424 39.11,8.28 C38.722,8.136 38.388,7.914 38.108,7.614 C37.828,7.314 37.61,6.934 37.454,6.474 C37.298,6.014 37.22,5.468 37.22,4.836 L37.22,3.66 C37.22,3.02 37.298,2.47 37.454,2.01 C37.61,1.55 37.828,1.17 38.108,0.87 C38.388,0.57 38.722,0.35 39.11,0.21 C39.498,0.07 39.924,0 40.388,0 C40.852,0 41.28,0.07 41.672,0.21 C42.064,0.35 42.4,0.57 42.68,0.87 C42.96,1.17 43.178,1.55 43.334,2.01 C43.49,2.47 43.568,3.02 43.568,3.66 L43.568,4.836 Z M38.9,4.836 C38.9,5.628 39.026,6.2 39.278,6.552 C39.53,6.904 39.9,7.08 40.388,7.08 C40.876,7.08 41.248,6.904 41.504,6.552 C41.76,6.2 41.888,5.628 41.888,4.836 L41.888,3.66 C41.888,2.868 41.76,2.296 41.504,1.944 C41.248,1.592 40.876,1.416 40.388,1.416 C39.9,1.416 39.53,1.592 39.278,1.944 C39.026,2.296 38.9,2.868 38.9,3.66 L38.9,4.836 Z" id="Shape"></path>
                <polygon id="Path" points="49.236 4.62 51.54 0.108 53.136 0.108 53.136 8.388 51.528 8.388 51.528 3.252 49.728 6.9 48.708 6.9 46.932 3.288 46.932 8.388 45.336 8.388 45.336 0.108 46.908 0.108"></polygon>
                <polygon id="Path" points="56.836 3.396 59.704 3.396 59.704 0.108 61.384 0.108 61.384 8.388 59.704 8.388 59.704 4.812 56.836 4.812 56.836 8.388 55.156 8.388 55.156 0.108 56.836 0.108"></polygon>
                <polygon id="Path" points="68.576 0.108 68.576 1.536 65.096 1.536 65.096 3.396 68.216 3.396 68.216 4.812 65.096 4.812 65.096 6.972 68.576 6.972 68.576 8.388 63.416 8.388 63.416 0.108"></polygon>
                <path d="M73.188,0.108 L74.868,0.108 L74.868,0.708 C75.348,0.708 75.792,0.762 76.2,0.87 C76.608,0.978 76.962,1.162 77.262,1.422 C77.562,1.682 77.798,2.026 77.97,2.454 C78.142,2.882 78.228,3.416 78.228,4.056 L78.228,4.44 C78.228,5.08 78.142,5.614 77.97,6.042 C77.798,6.47 77.562,6.814 77.262,7.074 C76.962,7.334 76.608,7.518 76.2,7.626 C75.792,7.734 75.348,7.788 74.868,7.788 L74.868,8.388 L73.188,8.388 L73.188,7.788 C72.708,7.788 72.262,7.734 71.85,7.626 C71.438,7.518 71.082,7.334 70.782,7.074 C70.482,6.814 70.248,6.47 70.08,6.042 C69.912,5.614 69.828,5.08 69.828,4.44 L69.828,4.056 C69.828,3.416 69.912,2.882 70.08,2.454 C70.248,2.026 70.482,1.682 70.782,1.422 C71.082,1.162 71.438,0.978 71.85,0.87 C72.262,0.762 72.708,0.708 73.188,0.708 L73.188,0.108 Z M74.868,6.372 C75.148,6.372 75.392,6.342 75.6,6.282 C75.808,6.222 75.982,6.12 76.122,5.976 C76.262,5.832 76.368,5.636 76.44,5.388 C76.512,5.14 76.548,4.824 76.548,4.44 L76.548,4.056 C76.548,3.672 76.512,3.356 76.44,3.108 C76.368,2.86 76.262,2.664 76.122,2.52 C75.982,2.376 75.808,2.274 75.6,2.214 C75.392,2.154 75.148,2.124 74.868,2.124 L74.868,6.372 Z M73.188,2.124 C72.908,2.124 72.664,2.154 72.456,2.214 C72.248,2.274 72.074,2.376 71.934,2.52 C71.794,2.664 71.688,2.86 71.616,3.108 C71.544,3.356 71.508,3.672 71.508,4.056 L71.508,4.44 C71.508,4.824 71.544,5.14 71.616,5.388 C71.688,5.636 71.794,5.832 71.934,5.976 C72.074,6.12 72.248,6.222 72.456,6.282 C72.664,6.342 72.908,6.372 73.188,6.372 L73.188,2.124 Z" id="Shape"></path>
                <polygon id="Path" points="85.228 0.108 85.228 1.536 82.948 1.536 82.948 8.388 81.268 8.388 81.268 1.536 78.988 1.536 78.988 0.108"></polygon>
                <path d="M88.208,0.108 L88.208,3.144 L89.492,3.144 C90.044,3.144 90.514,3.212 90.902,3.348 C91.29,3.484 91.61,3.672 91.862,3.912 C92.114,4.152 92.298,4.432 92.414,4.752 C92.53,5.072 92.588,5.412 92.588,5.772 C92.588,6.132 92.53,6.47 92.414,6.786 C92.298,7.102 92.114,7.378 91.862,7.614 C91.61,7.85 91.29,8.038 90.902,8.178 C90.514,8.318 90.044,8.388 89.492,8.388 L86.528,8.388 L86.528,0.108 L88.208,0.108 Z M88.208,4.56 L88.208,6.972 L89.396,6.972 C89.948,6.972 90.338,6.864 90.566,6.648 C90.794,6.432 90.908,6.14 90.908,5.772 C90.908,5.396 90.794,5.1 90.566,4.884 C90.338,4.668 89.948,4.56 89.396,4.56 L88.208,4.56 Z" id="Shape"></path>
                <path d="M0,21.388 L2.88,13.108 L4.488,13.108 L7.368,21.388 L5.58,21.388 L5.076,19.816 L2.304,19.816 L1.8,21.388 L0,21.388 Z M2.748,18.4 L4.62,18.4 L3.684,15.484 L2.748,18.4 Z" id="Shape"></path>
                <path d="M11.308,13.108 C12.292,13.108 13.042,13.284 13.558,13.636 C14.074,13.988 14.332,14.536 14.332,15.28 C14.332,15.712 14.234,16.074 14.038,16.366 C13.842,16.658 13.576,16.884 13.24,17.044 C13.672,17.204 14.006,17.442 14.242,17.758 C14.478,18.074 14.596,18.492 14.596,19.012 C14.596,19.332 14.54,19.636 14.428,19.924 C14.316,20.212 14.14,20.464 13.9,20.68 C13.66,20.896 13.348,21.068 12.964,21.196 C12.58,21.324 12.116,21.388 11.572,21.388 L8.536,21.388 L8.536,13.108 L11.308,13.108 Z M10.216,19.972 L11.428,19.972 C12.42,19.972 12.916,19.608 12.916,18.88 C12.916,18.488 12.784,18.21 12.52,18.046 C12.256,17.882 11.84,17.8 11.272,17.8 L10.216,17.8 L10.216,19.972 Z M10.216,16.384 L11.332,16.384 C11.796,16.384 12.132,16.3 12.34,16.132 C12.548,15.964 12.652,15.732 12.652,15.436 C12.652,15.292 12.63,15.164 12.586,15.052 C12.542,14.94 12.464,14.844 12.352,14.764 C12.24,14.684 12.088,14.624 11.896,14.584 C11.704,14.544 11.456,14.524 11.152,14.524 L10.216,14.524 L10.216,16.384 Z" id="Shape"></path>
                <polygon id="Path" points="21.716 13.108 21.716 14.536 19.436 14.536 19.436 21.388 17.756 21.388 17.756 14.536 15.476 14.536 15.476 13.108"></polygon>
                <path d="M29.028,17.836 C29.028,18.468 28.95,19.014 28.794,19.474 C28.638,19.934 28.42,20.314 28.14,20.614 C27.86,20.914 27.524,21.136 27.132,21.28 C26.74,21.424 26.312,21.496 25.848,21.496 C25.384,21.496 24.958,21.424 24.57,21.28 C24.182,21.136 23.848,20.914 23.568,20.614 C23.288,20.314 23.07,19.934 22.914,19.474 C22.758,19.014 22.68,18.468 22.68,17.836 L22.68,16.66 C22.68,16.02 22.758,15.47 22.914,15.01 C23.07,14.55 23.288,14.17 23.568,13.87 C23.848,13.57 24.182,13.35 24.57,13.21 C24.958,13.07 25.384,13 25.848,13 C26.312,13 26.74,13.07 27.132,13.21 C27.524,13.35 27.86,13.57 28.14,13.87 C28.42,14.17 28.638,14.55 28.794,15.01 C28.95,15.47 29.028,16.02 29.028,16.66 L29.028,17.836 Z M24.36,17.836 C24.36,18.628 24.486,19.2 24.738,19.552 C24.99,19.904 25.36,20.08 25.848,20.08 C26.336,20.08 26.708,19.904 26.964,19.552 C27.22,19.2 27.348,18.628 27.348,17.836 L27.348,16.66 C27.348,15.868 27.22,15.296 26.964,14.944 C26.708,14.592 26.336,14.416 25.848,14.416 C25.36,14.416 24.99,14.592 24.738,14.944 C24.486,15.296 24.36,15.868 24.36,16.66 L24.36,17.836 Z" id="Shape"></path>
                <polygon id="Path" points="34.696 17.62 37 13.108 38.596 13.108 38.596 21.388 36.988 21.388 36.988 16.252 35.188 19.9 34.168 19.9 32.392 16.288 32.392 21.388 30.796 21.388 30.796 13.108 32.368 13.108"></polygon>
                <path d="M39.752,21.388 L42.632,13.108 L44.24,13.108 L47.12,21.388 L45.332,21.388 L44.828,19.816 L42.056,19.816 L41.552,21.388 L39.752,21.388 Z M42.5,18.4 L44.372,18.4 L43.436,15.484 L42.5,18.4 Z" id="Shape"></path>
                <polygon id="Path" points="53.364 13.108 53.364 14.536 51.084 14.536 51.084 21.388 49.404 21.388 49.404 14.536 47.124 14.536 47.124 13.108"></polygon>
                <polygon id="Path" points="56.344 13.108 56.344 18.304 59.8 13.108 61.144 13.108 61.144 21.388 59.464 21.388 59.464 16.252 56.044 21.388 54.664 21.388 54.664 13.108"></polygon>
                <polygon id="Path" points="64.844 16.792 67.412 13.108 69.476 13.108 66.416 17.14 69.68 21.388 67.556 21.388 64.844 17.752 64.844 21.388 63.164 21.388 63.164 13.108 64.844 13.108"></polygon>
                <path d="M70.248,21.388 L73.128,13.108 L74.736,13.108 L77.616,21.388 L75.828,21.388 L75.324,19.816 L72.552,19.816 L72.048,21.388 L70.248,21.388 Z M72.996,18.4 L74.868,18.4 L73.932,15.484 L72.996,18.4 Z" id="Shape"></path>
                <polygon id="Path" points="78.208 17.248 81.316 17.248 81.316 18.592 78.208 18.592"></polygon>
                <path d="M5.208,28.676 C5.128,28.284 4.972,27.976 4.74,27.752 C4.508,27.528 4.188,27.416 3.78,27.416 C3.292,27.416 2.922,27.592 2.67,27.944 C2.418,28.296 2.292,28.868 2.292,29.66 L2.292,30.836 C2.292,31.612 2.418,32.18 2.67,32.54 C2.922,32.9 3.292,33.08 3.78,33.08 C4.204,33.08 4.526,32.976 4.746,32.768 C4.966,32.56 5.12,32.244 5.208,31.82 L6.804,31.82 C6.668,32.756 6.344,33.436 5.832,33.86 C5.32,34.284 4.636,34.496 3.78,34.496 C3.316,34.496 2.89,34.424 2.502,34.28 C2.114,34.136 1.78,33.914 1.5,33.614 C1.22,33.314 1.002,32.934 0.846,32.474 C0.69,32.014 0.612,31.468 0.612,30.836 L0.612,29.66 C0.612,29.02 0.69,28.47 0.846,28.01 C1.002,27.55 1.22,27.17 1.5,26.87 C1.78,26.57 2.114,26.35 2.502,26.21 C2.89,26.07 3.316,26 3.78,26 C4.604,26 5.282,26.218 5.814,26.654 C6.346,27.09 6.68,27.764 6.816,28.676 L5.208,28.676 Z" id="Path"></path>
                <polygon id="Path" points="13.54 26.108 13.54 27.536 10.06 27.536 10.06 29.396 13.18 29.396 13.18 30.812 10.06 30.812 10.06 32.972 13.54 32.972 13.54 34.388 8.38 34.388 8.38 26.108"></polygon>
                <path d="M16.772,31.472 L16.772,34.388 L15.092,34.388 L15.092,26.108 L18.056,26.108 C19.008,26.108 19.762,26.328 20.318,26.768 C20.874,27.208 21.152,27.872 21.152,28.76 C21.152,29.64 20.878,30.312 20.33,30.776 C19.782,31.24 19.024,31.472 18.056,31.472 L16.772,31.472 Z M17.816,30.056 C18.4,30.056 18.822,29.952 19.082,29.744 C19.342,29.536 19.472,29.208 19.472,28.76 C19.472,28.36 19.342,28.056 19.082,27.848 C18.822,27.64 18.4,27.536 17.816,27.536 L16.772,27.536 L16.772,30.056 L17.816,30.056 Z" id="Shape"></path>
                <path d="M25.332,26.108 C26.316,26.108 27.066,26.284 27.582,26.636 C28.098,26.988 28.356,27.536 28.356,28.28 C28.356,28.712 28.258,29.074 28.062,29.366 C27.866,29.658 27.6,29.884 27.264,30.044 C27.696,30.204 28.03,30.442 28.266,30.758 C28.502,31.074 28.62,31.492 28.62,32.012 C28.62,32.332 28.564,32.636 28.452,32.924 C28.34,33.212 28.164,33.464 27.924,33.68 C27.684,33.896 27.372,34.068 26.988,34.196 C26.604,34.324 26.14,34.388 25.596,34.388 L22.56,34.388 L22.56,26.108 L25.332,26.108 Z M24.24,32.972 L25.452,32.972 C26.444,32.972 26.94,32.608 26.94,31.88 C26.94,31.488 26.808,31.21 26.544,31.046 C26.28,30.882 25.864,30.8 25.296,30.8 L24.24,30.8 L24.24,32.972 Z M24.24,29.384 L25.356,29.384 C25.82,29.384 26.156,29.3 26.364,29.132 C26.572,28.964 26.676,28.732 26.676,28.436 C26.676,28.292 26.654,28.164 26.61,28.052 C26.566,27.94 26.488,27.844 26.376,27.764 C26.264,27.684 26.112,27.624 25.92,27.584 C25.728,27.544 25.48,27.524 25.176,27.524 L24.24,27.524 L24.24,29.384 Z" id="Shape"></path>
                <polygon id="Path" points="31.9 26.108 31.9 31.304 35.356 26.108 36.7 26.108 36.7 34.388 35.02 34.388 35.02 29.252 31.6 34.388 30.22 34.388 30.22 26.108"></polygon>
                <path d="M43.064,28.676 C42.984,28.284 42.828,27.976 42.596,27.752 C42.364,27.528 42.044,27.416 41.636,27.416 C41.148,27.416 40.778,27.592 40.526,27.944 C40.274,28.296 40.148,28.868 40.148,29.66 L40.148,30.836 C40.148,31.612 40.274,32.18 40.526,32.54 C40.778,32.9 41.148,33.08 41.636,33.08 C42.06,33.08 42.382,32.976 42.602,32.768 C42.822,32.56 42.976,32.244 43.064,31.82 L44.66,31.82 C44.524,32.756 44.2,33.436 43.688,33.86 C43.176,34.284 42.492,34.496 41.636,34.496 C41.172,34.496 40.746,34.424 40.358,34.28 C39.97,34.136 39.636,33.914 39.356,33.614 C39.076,33.314 38.858,32.934 38.702,32.474 C38.546,32.014 38.468,31.468 38.468,30.836 L38.468,29.66 C38.468,29.02 38.546,28.47 38.702,28.01 C38.858,27.55 39.076,27.17 39.356,26.87 C39.636,26.57 39.97,26.35 40.358,26.21 C40.746,26.07 41.172,26 41.636,26 C42.46,26 43.138,26.218 43.67,26.654 C44.202,27.09 44.536,27.764 44.672,28.676 L43.064,28.676 Z" id="Path"></path>
            </g>
        </g>
    </g>
</svg>